<svg xmlns="http://www.w3.org/2000/svg" viewBox="0 0 96 96" aria-hidden="true" focusable="false">
  <path d="M69.21 48c12.53 0 22.69-8.783 22.69-21.312C91.9 14.159 78.99 4 66.46 4 57.1 4 50.607 9.663 47.914 17.748a3.33 3.33 0 00-.959-1.421c-1.946-1.7-5.583-1.353-8.327-.255-.592.237-1.233.487-1.915.755C26.1 20.98 4 29.624 4 51c0 19.34 26.109 33.9 34.111 37.9a15.259 15.259 0 006.517 1.83 4.012 4.012 0 003.53-1.482c2.3-3.445-2.156-6.68-3.832-7.9a93.453 93.453 0 00-1.819-1.29c10.13 2.895 19.229 3.119 23.274 1.252a3.6 3.6 0 002.162-2.158 2.583 2.583 0 00-.328-2.183c-1.415-2.156-6.046-2.948-10.672-3.569-.41-.056-.783-.106-1.106-.153-2.728-.4-5.406-.937-7.707-1.457 2.555-.117 5.573-.3 8.668-.588 11.113-1.031 17.917-2.873 20.224-5.476a3.542 3.542 0 00.97-2.837 2.99 2.99 0 00-1.172-2.146c-1.758-1.314-4.922-.769-9.3-.012l-1.682.287c-4.065.62-8.167.973-12.278 1.054 13.032-3.107 18.853-7.685 18.611-11.207C72.076 49.48 70.93 48 68 48c-2.893 0-6.192.878-10.011 1.895A87.73 87.73 0 0141.917 53c-4.832.4-8.955-1.319-10.777-4.491C29.4 45.488 30 41.6 32.819 37.573A72.039 72.039 0 0143.63 25.485a35.765 35.765 0 003.216-3.231 30.156 30.156 0 00-.324 4.433C46.522 39.217 56.68 48 69.21 48zm-.71-35a2.5 2.5 0 110 5 2.5 2.5 0 010-5zM65 22h5v14h-2V24h-3v-2zm-18.97-2.242c-.248.989-1.8 2.435-3.763 4.264a73.802 73.802 0 00-11.086 12.405c-3.291 4.7-3.921 9.348-1.775 13.083 2.213 3.852 7.07 5.959 12.677 5.486A90.705 90.705 0 0058.5 51.827C62.187 50.847 65.368 50 68 50c.972 0 2.125.263 2.176 1 .154 2.246-6.509 8.137-27.312 11.007L42.948 64c.13.007 13.166.662 23.217-1.013.578-.1 1.143-.194 1.693-.289 3.443-.6 6.7-1.156 7.766-.356a1 1 0 01.383.774 1.555 1.555 0 01-.48 1.28c-3.974 4.483-26.277 5.561-34.536 5.6l-.282 1.958c4.872 1.4 9.828 2.492 14.837 3.27.329.049.71.1 1.129.157 2.465.333 8.237 1.115 9.266 2.688a.592.592 0 01.078.54c-.082.287-.474.611-1.075.889-4.356 2.012-17.886 1.364-31.959-5.073l-.832 1.818c.47.216.94.424 1.412.628l-.013.026a78.51 78.51 0 019.6 6.074c4.575 3.322 3.68 4.664 3.343 5.169-.568.854-3.487.973-7.488-1.027C33.494 84.354 6 69.661 6 51c0-20.011 20.454-28.013 31.442-32.312.688-.269 1.333-.521 1.93-.76a10.479 10.479 0 013.782-.776 3.86 3.86 0 012.486.68c.177.155.715.625.39 1.926z"></path>
</svg>