<svg xmlns="http://www.w3.org/2000/svg" viewBox="0 0 24 24" aria-hidden="true" focusable="false"><path d="M12 2a10 10 0 1 0 10 10A10.01 10.01 0 0 0 12 2M9 18.883v.528a7.94 7.94 0 0 1-4.94-8.351l3.385 3.385a2.967 2.967 0 0 0 1.649 4.4zM17.5 15q.252 0 .5-.05V15a.99.99 0 0 0 .927.985A8 8 0 0 1 12 20c-.216 0-.427-.016-.639-.032l1.254-2.5-.015.006a2.97 2.97 0 0 0-.08-3.11A2.988 2.988 0 0 0 8 13.78V11h1a1 1 0 0 0 1-1V9a1 1 0 0 0 1-1 1 1 0 1 0 0-2H6.726A7.9 7.9 0 0 1 14 4.263V6a1 1 0 0 0 2 0v-.918a8 8 0 0 1 2 1.649V7h-1a1 1 0 1 0 0 2h2.411q.196.49.326 1H17a2.556 2.556 0 0 0-2 2.5 2.5 2.5 0 0 0 2.5 2.5"></path></svg>